<svg width="312" height="56" viewBox="0 0 312 56" fill="none" xmlns="http://www.w3.org/2000/svg">
<path d="M17.6309 26.1501C17.0838 23.8707 16.5729 21.7424 15.9898 19.6504H8.65014C8.04902 21.7424 7.55612 23.8827 7.0091 26.1501H0C2.48263 17.7761 4.80896 10.3936 9.30535 0.84668H15.3166C19.8069 10.3936 22.1453 17.7761 24.6279 26.1501H17.6309ZM10.1108 14.6623H14.5652C13.9099 12.528 13.1766 10.3271 12.341 7.86633C11.4995 10.3271 10.7721 12.528 10.1108 14.6623Z" fill="#72BF44"/>
<path d="M39.8354 23.9069C38.4846 20.0816 36.878 16.3527 35.0265 12.7456L34.1127 26.1501H27.1758L29.2917 0.84668H35.5314C38.3066 5.63583 40.6291 10.6763 42.4683 15.9017C44.3076 10.6763 46.63 5.63583 49.4052 0.84668H55.6509L57.7669 26.1501H50.8299L49.9102 12.7698C48.0637 16.3792 46.4572 20.1078 45.1013 23.9311L39.8354 23.9069Z" fill="#72BF44"/>
<path d="M69.5199 0.84668H62.5469V26.1501H69.5199V0.84668Z" fill="#72BF44"/>
<path d="M89.2368 0.84668H96.2458V26.1501H89.6756C87.6861 21.0887 85.1524 16.2614 82.1195 11.754V26.1501H75.0684V0.84668H81.6446C84.6021 5.3632 87.9624 10.6536 89.2368 13.6284V0.84668Z" fill="#72BF44"/>
<path d="M114.214 26.555C107.86 26.555 100.562 22.9877 100.562 13.5133C100.562 4.0389 107.86 0.441406 114.214 0.441406C120.568 0.441406 127.908 4.0389 127.908 13.5133C127.908 22.9877 120.532 26.555 114.214 26.555ZM114.214 6.28205C111.112 6.28205 107.535 8.30148 107.535 13.5375C107.535 18.7735 111.142 20.7385 114.214 20.7385C117.286 20.7385 120.898 18.7554 120.898 13.5375C120.898 8.31962 117.292 6.28205 114.214 6.28205Z" fill="#72BF44"/>
<path d="M139.244 15.4241V0.84668H146.181V14.8013C146.181 20.8475 149.541 20.642 150.311 20.642C151.08 20.642 154.362 20.8596 154.362 14.8013V0.84668H161.299V15.4241C161.299 26.005 153.521 26.5552 150.311 26.5552C147.101 26.5552 139.244 26.005 139.244 15.4241Z" fill="#6D6E71"/>
<path d="M173.569 19.0639C173.569 19.8681 173.785 20.6057 174.885 20.6057H183.607V26.1501H173.46C168.748 26.005 166.668 24.6808 166.596 20.3457V0.84668H173.569V19.0639Z" fill="#6D6E71"/>
<path d="M189.016 26.1501V6.39105H181.893V0.84668H203.07V6.39105H195.989V26.1501H189.016Z" fill="#6D6E71"/>
<path d="M220.341 15.9743C220.938 16.1663 221.453 16.5563 221.801 17.0808C224.092 19.9287 226.145 22.9621 227.939 26.1501H220.377C218.722 23.3228 216.916 20.5879 214.967 17.9575C214.714 17.631 214.311 16.9296 213.8 16.9296H213.253V26.1501H206.238V0.84668H217.197C221.903 0.84668 225.739 3.48888 225.739 8.85186C225.739 13.3684 222.817 15.5027 220.371 15.9743H220.341ZM216.247 11.6089C216.591 11.609 216.931 11.5402 217.248 11.4066C217.565 11.273 217.853 11.0773 218.094 10.8308C218.335 10.5843 218.525 10.292 218.653 9.97093C218.78 9.64987 218.843 9.30645 218.838 8.96069C218.848 8.61735 218.788 8.27558 218.661 7.95674C218.534 7.6379 218.343 7.34885 218.099 7.10768C217.856 6.8665 217.566 6.67837 217.247 6.55507C216.929 6.43176 216.588 6.37593 216.247 6.39105H213.139V11.6089H216.247Z" fill="#6D6E71"/>
<path d="M247.361 26.1501C246.814 23.8707 246.304 21.7424 245.72 19.6504H238.381C237.78 21.7424 237.287 23.8827 236.74 26.1501H229.725C232.207 17.7761 234.534 10.3936 239.036 0.84668H245.047C249.538 10.3936 251.87 17.7761 254.353 26.1501H247.361ZM239.841 14.6623H244.296C243.641 12.534 242.907 10.3271 242.066 7.86633C241.23 10.3271 240.497 12.534 239.841 14.6623Z" fill="#6D6E71"/>
<path d="M271.262 11.1978L278.914 22.4014L286.572 11.1978H271.262Z" fill="#3B609F"/>
<path d="M286.572 55.9998L278.914 44.8022L271.262 55.9998H286.572Z" fill="#DD7DB2"/>
<path d="M278.914 44.8022L286.572 55.9998L294.225 44.8022H278.914Z" fill="#D31E8A"/>
<path d="M278.914 44.8023L271.262 33.5986L263.604 44.8023H278.914Z" fill="#EDC3DC"/>
<path d="M286.572 33.5986L278.914 44.8023L271.262 33.5986H286.572Z" fill="#BF835E"/>
<path d="M278.914 44.8023L286.572 33.5986L294.225 44.8023H278.914Z" fill="#99644B"/>
<path d="M286.572 33.5989L278.914 22.4014L271.262 33.5989H286.572Z" fill="#86D0CC"/>
<path d="M278.914 22.4014L286.572 33.5989L294.225 22.4014H278.914Z" fill="#68C8C6"/>
<path d="M278.914 22.4014L286.572 11.1978L294.225 22.4014H278.914Z" fill="#00968A"/>
<path d="M278.914 22.4014L271.262 11.1978L263.604 22.4014H278.914Z" fill="#6678B0"/>
<path d="M278.914 0L271.262 11.1976L263.604 0H278.914Z" fill="#4B67A5"/>
<path d="M271.262 11.1976L278.914 0L286.572 11.1976H271.262Z" fill="#06488C"/>
<path d="M306.079 31.0716L300.152 22.4014L294.225 31.0716H306.079Z" fill="#54B94A"/>
<path d="M300.152 22.4014L306.079 31.0716L312 22.4014H300.152Z" fill="#7FC463"/>
<path d="M306.079 13.731L300.152 22.4012L294.225 13.731H306.079Z" fill="#A5D38B"/>
<path d="M300.152 22.4012L306.079 13.731L312 22.4012H300.152Z" fill="#54B94A"/>
</svg>
